# Blender 4.5.4 LTS
# www.blender.org
mtllib calendario_azteca.mtl
g Cylinder_Cylinder
v 11.030000 11.000001 0.250000
v 11.030000 11.000001 -0.250000
v 11.002524 11.778046 0.250000
v 11.002524 11.778046 -0.250000
v 10.920235 12.552214 0.250000
v 10.920235 12.552214 -0.250000
v 10.783542 13.318649 0.250000
v 10.783542 13.318649 -0.250000
v 10.593124 14.073534 0.250000
v 10.593124 14.073534 -0.250000
v 10.349934 14.813106 0.250000
v 10.349934 14.813106 -0.250000
v 10.055180 15.533681 0.250000
v 10.055180 15.533681 -0.250000
v 9.710331 16.231670 0.250000
v 9.710331 16.231670 -0.250000
v 9.317107 16.903593 0.250000
v 9.317107 16.903593 -0.250000
v 8.877464 17.546106 0.250000
v 8.877464 17.546106 -0.250000
v 8.393595 18.156008 0.250000
v 8.393595 18.156008 -0.250000
v 7.867910 18.730259 0.250000
v 7.867910 18.730259 -0.250000
v 7.303027 19.265997 0.250000
v 7.303027 19.265997 -0.250000
v 6.701761 19.760555 0.250000
v 6.701761 19.760555 -0.250000
v 6.067106 20.211468 0.250000
v 6.067106 20.211468 -0.250000
v 5.402225 20.616489 0.250000
v 5.402225 20.616489 -0.250000
v 4.710432 20.973602 0.250000
v 4.710432 20.973602 -0.250000
v 3.995171 21.281025 0.250000
v 3.995171 21.281025 -0.250000
v 3.260006 21.537231 0.250000
v 3.260006 21.537231 -0.250000
v 2.508600 21.740940 0.250000
v 2.508600 21.740940 -0.250000
v 1.744696 21.891140 0.250000
v 1.744696 21.891140 -0.250000
v 0.972101 21.987080 0.250000
v 0.972101 21.987080 -0.250000
v 0.194662 22.028282 0.250000
v 0.194662 22.028282 -0.250000
v -0.583747 22.014542 0.250000
v -0.583747 22.014542 -0.250000
v -1.359247 21.945929 0.250000
v -1.359247 21.945929 -0.250000
v -2.127975 21.822783 0.250000
v -2.127975 21.822783 -0.250000
v -2.886102 21.645718 0.250000
v -2.886102 21.645718 -0.250000
v -3.629851 21.415619 0.250000
v -3.629851 21.415619 -0.250000
v -4.355516 21.133625 0.250000
v -4.355516 21.133625 -0.250000
v -5.059482 20.801151 0.250000
v -5.059482 20.801151 -0.250000
v -5.738242 20.419846 0.250000
v -5.738242 20.419846 -0.250000
v -6.388413 19.991611 0.250000
v -6.388413 19.991611 -0.250000
v -7.006760 19.518579 0.250000
v -7.006760 19.518579 -0.250000
v -7.590198 19.003111 0.250000
v -7.590198 19.003111 -0.250000
v -8.135821 18.447773 0.250000
v -8.135821 18.447773 -0.250000
v -8.640914 17.855328 0.250000
v -8.640914 17.855328 -0.250000
v -9.102956 17.228729 0.250000
v -9.102956 17.228729 -0.250000
v -9.519649 16.571100 0.250000
v -9.519649 16.571100 -0.250000
v -9.888916 15.885717 0.250000
v -9.888916 15.885717 -0.250000
v -10.208916 15.175993 0.250000
v -10.208916 15.175993 -0.250000
v -10.478057 14.445464 0.250000
v -10.478057 14.445464 -0.250000
v -10.694995 13.697771 0.250000
v -10.694995 13.697771 -0.250000
v -10.858652 12.936637 0.250000
v -10.858652 12.936637 -0.250000
v -10.968212 12.165854 0.250000
v -10.968212 12.165854 -0.250000
v -11.023129 11.389264 0.250000
v -11.023129 11.389264 -0.250000
v -11.023129 10.610734 0.250000
v -11.023129 10.610734 -0.250000
v -10.968212 9.834144 0.250000
v -10.968212 9.834144 -0.250000
v -10.858652 9.063362 0.250000
v -10.858652 9.063362 -0.250000
v -10.694995 8.302228 0.250000
v -10.694995 8.302228 -0.250000
v -10.478057 7.554534 0.250000
v -10.478057 7.554534 -0.250000
v -10.208916 6.824005 0.250000
v -10.208916 6.824005 -0.250000
v -9.888916 6.114281 0.250000
v -9.888916 6.114281 -0.250000
v -9.519649 5.428897 0.250000
v -9.519649 5.428897 -0.250000
v -9.102956 4.771269 0.250000
v -9.102956 4.771269 -0.250000
v -8.640912 4.144672 0.250000
v -8.640912 4.144672 -0.250000
v -8.135819 3.552227 0.250000
v -8.135819 3.552227 -0.250000
v -7.590197 2.996887 0.250000
v -7.590197 2.996887 -0.250000
v -7.006759 2.481419 0.250000
v -7.006759 2.481419 -0.250000
v -6.388412 2.008388 0.250000
v -6.388412 2.008388 -0.250000
v -5.738241 1.580155 0.250000
v -5.738241 1.580155 -0.250000
v -5.059480 1.198850 0.250000
v -5.059480 1.198850 -0.250000
v -4.355515 0.866374 0.250000
v -4.355515 0.866374 -0.250000
v -3.629849 0.584382 0.250000
v -3.629849 0.584382 -0.250000
v -2.886101 0.354282 0.250000
v -2.886101 0.354282 -0.250000
v -2.127974 0.177217 0.250000
v -2.127974 0.177217 -0.250000
v -1.359245 0.054071 0.250000
v -1.359245 0.054071 -0.250000
v -0.583745 -0.014542 0.250000
v -0.583745 -0.014542 -0.250000
v 0.194664 -0.028282 0.250000
v 0.194664 -0.028282 -0.250000
v 0.972102 0.012920 0.250000
v 0.972102 0.012920 -0.250000
v 1.744698 0.108860 0.250000
v 1.744698 0.108860 -0.250000
v 2.508601 0.259059 0.250000
v 2.508601 0.259059 -0.250000
v 3.260007 0.462769 0.250000
v 3.260007 0.462769 -0.250000
v 3.995172 0.718974 0.250000
v 3.995172 0.718974 -0.250000
v 4.710433 1.026399 0.250000
v 4.710433 1.026399 -0.250000
v 5.402227 1.383512 0.250000
v 5.402227 1.383512 -0.250000
v 6.067107 1.788533 0.250000
v 6.067107 1.788533 -0.250000
v 6.701762 2.239448 0.250000
v 6.701762 2.239448 -0.250000
v 7.303028 2.734005 0.250000
v 7.303028 2.734005 -0.250000
v 7.867911 3.269743 0.250000
v 7.867911 3.269743 -0.250000
v 8.393597 3.843993 0.250000
v 8.393597 3.843993 -0.250000
v 8.877466 4.453894 0.250000
v 8.877466 4.453894 -0.250000
v 9.317107 5.096407 0.250000
v 9.317107 5.096407 -0.250000
v 9.710331 5.768332 0.250000
v 9.710331 5.768332 -0.250000
v 10.055180 6.466321 0.250000
v 10.055180 6.466321 -0.250000
v 10.349934 7.186896 0.250000
v 10.349934 7.186896 -0.250000
v 10.593124 7.926468 0.250000
v 10.593124 7.926468 -0.250000
v 10.783542 8.681352 0.250000
v 10.783542 8.681352 -0.250000
v 10.920235 9.447787 0.250000
v 10.920235 9.447787 -0.250000
v 11.002524 10.221956 0.250000
v 11.002524 10.221956 -0.250000
vn 0.9994 0.0353 -0.0000
vn 0.9944 0.1057 -0.0000
vn 0.9845 0.1756 -0.0000
vn 0.9696 0.2446 -0.0000
vn 0.9500 0.3124 -0.0000
vn 0.9256 0.3786 -0.0000
vn 0.8965 0.4429 -0.0000
vn 0.8631 0.5051 -0.0000
vn 0.8253 0.5647 -0.0000
vn 0.7834 0.6215 -0.0000
vn 0.7376 0.6752 -0.0000
vn 0.6881 0.7256 -0.0000
vn 0.6352 0.7723 -0.0000
vn 0.5792 0.8152 -0.0000
vn 0.5202 0.8540 -0.0000
vn 0.4587 0.8886 -0.0000
vn 0.3949 0.9187 -0.0000
vn 0.3291 0.9443 -0.0000
vn 0.2617 0.9652 -0.0000
vn 0.1929 0.9812 -0.0000
vn 0.1232 0.9924 -0.0000
vn 0.0529 0.9986 -0.0000
vn -0.0176 0.9998 -0.0000
vn -0.0881 0.9961 -0.0000
vn -0.1582 0.9874 -0.0000
vn -0.2274 0.9738 -0.0000
vn -0.2956 0.9553 -0.0000
vn -0.3622 0.9321 -0.0000
vn -0.4271 0.9042 -0.0000
vn -0.4898 0.8718 -0.0000
vn -0.5501 0.8351 -0.0000
vn -0.6076 0.7942 -0.0000
vn -0.6621 0.7494 -0.0000
vn -0.7133 0.7008 -0.0000
vn -0.7610 0.6488 -0.0000
vn -0.8048 0.5935 -0.0000
vn -0.8447 0.5352 -0.0000
vn -0.8804 0.4743 -0.0000
vn -0.9116 0.4110 -0.0000
vn -0.9383 0.3457 -0.0000
vn -0.9604 0.2787 -0.0000
vn -0.9777 0.2102 -0.0000
vn -0.9900 0.1407 -0.0000
vn -0.9975 0.0705 -0.0000
vn -1.0000 -0.0000 -0.0000
vn -0.9975 -0.0705 -0.0000
vn -0.9900 -0.1407 -0.0000
vn -0.9777 -0.2102 -0.0000
vn -0.9604 -0.2787 -0.0000
vn -0.9383 -0.3457 -0.0000
vn -0.9116 -0.4110 -0.0000
vn -0.8804 -0.4743 -0.0000
vn -0.8447 -0.5352 -0.0000
vn -0.8048 -0.5935 -0.0000
vn -0.7610 -0.6488 -0.0000
vn -0.7133 -0.7008 -0.0000
vn -0.6621 -0.7494 -0.0000
vn -0.6076 -0.7942 -0.0000
vn -0.5501 -0.8351 -0.0000
vn -0.4898 -0.8718 -0.0000
vn -0.4271 -0.9042 -0.0000
vn -0.3622 -0.9321 -0.0000
vn -0.2956 -0.9553 -0.0000
vn -0.2274 -0.9738 -0.0000
vn -0.1582 -0.9874 -0.0000
vn -0.0881 -0.9961 -0.0000
vn -0.0176 -0.9998 -0.0000
vn 0.0529 -0.9986 -0.0000
vn 0.1232 -0.9924 -0.0000
vn 0.1929 -0.9812 -0.0000
vn 0.2617 -0.9652 -0.0000
vn 0.3291 -0.9443 -0.0000
vn 0.3949 -0.9187 -0.0000
vn 0.4587 -0.8886 -0.0000
vn 0.5202 -0.8540 -0.0000
vn 0.5792 -0.8152 -0.0000
vn 0.6352 -0.7723 -0.0000
vn 0.6881 -0.7256 -0.0000
vn 0.7376 -0.6752 -0.0000
vn 0.7834 -0.6215 -0.0000
vn 0.8253 -0.5647 -0.0000
vn 0.8631 -0.5051 -0.0000
vn 0.8965 -0.4429 -0.0000
vn 0.9256 -0.3786 -0.0000
vn 0.9500 -0.3124 -0.0000
vn 0.9696 -0.2446 -0.0000
vn 0.9845 -0.1756 -0.0000
vn -0.0000 -0.0000 -1.0000
vn 0.9944 -0.1057 -0.0000
vn 0.9994 -0.0353 -0.0000
vn -0.0000 -0.0000 1.0000
vt 1.000000 0.500000
vt 1.000000 1.000000
vt 0.988764 1.000000
vt 0.988764 0.500000
vt 0.977528 1.000000
vt 0.977528 0.500000
vt 0.966292 1.000000
vt 0.966292 0.500000
vt 0.955056 1.000000
vt 0.955056 0.500000
vt 0.943820 1.000000
vt 0.943820 0.500000
vt 0.932584 1.000000
vt 0.932584 0.500000
vt 0.921348 1.000000
vt 0.921348 0.500000
vt 0.910112 1.000000
vt 0.910112 0.500000
vt 0.898876 1.000000
vt 0.898876 0.500000
vt 0.887640 1.000000
vt 0.887640 0.500000
vt 0.876405 1.000000
vt 0.876405 0.500000
vt 0.865169 1.000000
vt 0.865169 0.500000
vt 0.853933 1.000000
vt 0.853933 0.500000
vt 0.842697 1.000000
vt 0.842697 0.500000
vt 0.831461 1.000000
vt 0.831461 0.500000
vt 0.820225 1.000000
vt 0.820225 0.500000
vt 0.808989 1.000000
vt 0.808989 0.500000
vt 0.797753 1.000000
vt 0.797753 0.500000
vt 0.786517 1.000000
vt 0.786517 0.500000
vt 0.775281 1.000000
vt 0.775281 0.500000
vt 0.764045 1.000000
vt 0.764045 0.500000
vt 0.752809 1.000000
vt 0.752809 0.500000
vt 0.741573 1.000000
vt 0.741573 0.500000
vt 0.730337 1.000000
vt 0.730337 0.500000
vt 0.719101 1.000000
vt 0.719101 0.500000
vt 0.707865 1.000000
vt 0.707865 0.500000
vt 0.696629 1.000000
vt 0.696629 0.500000
vt 0.685393 1.000000
vt 0.685393 0.500000
vt 0.674157 1.000000
vt 0.674157 0.500000
vt 0.662921 1.000000
vt 0.662921 0.500000
vt 0.651685 1.000000
vt 0.651685 0.500000
vt 0.640450 1.000000
vt 0.640450 0.500000
vt 0.629214 1.000000
vt 0.629214 0.500000
vt 0.617978 1.000000
vt 0.617978 0.500000
vt 0.606742 1.000000
vt 0.606742 0.500000
vt 0.595506 1.000000
vt 0.595506 0.500000
vt 0.584270 1.000000
vt 0.584270 0.500000
vt 0.573034 1.000000
vt 0.573034 0.500000
vt 0.561798 1.000000
vt 0.561798 0.500000
vt 0.550562 1.000000
vt 0.550562 0.500000
vt 0.539326 1.000000
vt 0.539326 0.500000
vt 0.528090 1.000000
vt 0.528090 0.500000
vt 0.516854 1.000000
vt 0.516854 0.500000
vt 0.505618 1.000000
vt 0.505618 0.500000
vt 0.494382 1.000000
vt 0.494382 0.500000
vt 0.483146 1.000000
vt 0.483146 0.500000
vt 0.471910 1.000000
vt 0.471910 0.500000
vt 0.460674 1.000000
vt 0.460674 0.500000
vt 0.449438 1.000000
vt 0.449438 0.500000
vt 0.438202 1.000000
vt 0.438202 0.500000
vt 0.426966 1.000000
vt 0.426966 0.500000
vt 0.415730 1.000000
vt 0.415730 0.500000
vt 0.404495 1.000000
vt 0.404495 0.500000
vt 0.393259 1.000000
vt 0.393259 0.500000
vt 0.382023 1.000000
vt 0.382023 0.500000
vt 0.370787 1.000000
vt 0.370787 0.500000
vt 0.359551 1.000000
vt 0.359551 0.500000
vt 0.348315 1.000000
vt 0.348315 0.500000
vt 0.337079 1.000000
vt 0.337079 0.500000
vt 0.325843 1.000000
vt 0.325843 0.500000
vt 0.314607 1.000000
vt 0.314607 0.500000
vt 0.303371 1.000000
vt 0.303371 0.500000
vt 0.292135 1.000000
vt 0.292135 0.500000
vt 0.280899 1.000000
vt 0.280899 0.500000
vt 0.269663 1.000000
vt 0.269663 0.500000
vt 0.258427 1.000000
vt 0.258427 0.500000
vt 0.247191 1.000000
vt 0.247191 0.500000
vt 0.235955 1.000000
vt 0.235955 0.500000
vt 0.224719 1.000000
vt 0.224719 0.500000
vt 0.213483 1.000000
vt 0.213483 0.500000
vt 0.202247 1.000000
vt 0.202247 0.500000
vt 0.191011 1.000000
vt 0.191011 0.500000
vt 0.179775 1.000000
vt 0.179775 0.500000
vt 0.168540 1.000000
vt 0.168540 0.500000
vt 0.157304 1.000000
vt 0.157304 0.500000
vt 0.146068 1.000000
vt 0.146068 0.500000
vt 0.134832 1.000000
vt 0.134832 0.500000
vt 0.123596 1.000000
vt 0.123596 0.500000
vt 0.112360 1.000000
vt 0.112360 0.500000
vt 0.101124 1.000000
vt 0.101124 0.500000
vt 0.089888 1.000000
vt 0.089888 0.500000
vt 0.078652 1.000000
vt 0.078652 0.500000
vt 0.067416 1.000000
vt 0.067416 0.500000
vt 0.056180 1.000000
vt 0.056180 0.500000
vt 0.044944 1.000000
vt 0.044944 0.500000
vt 0.033708 1.000000
vt 0.033708 0.500000
vt 0.022472 1.000000
vt 0.022472 0.500000
vt 0.034581 0.496767
vt 0.036420 0.462582
vt 0.040564 0.428838
vt 0.046949 0.395696
vt 0.055501 0.363307
vt 0.066138 0.331812
vt 0.078771 0.301343
vt 0.093306 0.272024
vt 0.109643 0.243966
vt 0.127679 0.217274
vt 0.147306 0.192042
vt 0.168415 0.168356
vt 0.190894 0.146291
vt 0.214629 0.125918
vt 0.239508 0.107298
vt 0.265414 0.090483
vt 0.292232 0.075520
vt 0.319848 0.062448
vt 0.348147 0.051301
vt 0.377012 0.042107
vt 0.406331 0.034885
vt 0.435988 0.029652
vt 0.465871 0.026418
vt 0.495866 0.025188
vt 0.525861 0.025962
vt 0.555743 0.028734
vt 0.585400 0.033495
vt 0.614722 0.040230
vt 0.643596 0.048917
vt 0.671913 0.059533
vt 0.699562 0.072046
vt 0.726433 0.086420
vt 0.752416 0.102614
vt 0.777403 0.120580
vt 0.801285 0.140264
vt 0.823955 0.161607
vt 0.845308 0.184541
vt 0.865238 0.208993
vt 0.883643 0.234882
vt 0.900422 0.262119
vt 0.915478 0.290606
vt 0.928718 0.320241
vt 0.940050 0.350908
vt 0.949390 0.382487
vt 0.956659 0.414849
vt 0.961784 0.447852
vt 0.964700 0.481352
vt 0.965350 0.515192
vt 0.963686 0.549210
vt 0.959673 0.583235
vt 0.953286 0.617089
vt 0.944513 0.650590
vt 0.933355 0.683551
vt 0.919830 0.715779
vt 0.903968 0.747080
vt 0.885820 0.777261
vt 0.865449 0.806127
vt 0.842939 0.833486
vt 0.818390 0.859154
vt 0.791920 0.882950
vt 0.763662 0.904703
vt 0.733770 0.924251
vt 0.702410 0.941449
vt 0.669763 0.956164
vt 0.636026 0.968278
vt 0.601403 0.977695
vt 0.566113 0.984337
vt 0.530378 0.988148
vt 0.494428 0.989092
vt 0.458495 0.987157
vt 0.422811 0.982355
vt 0.387607 0.974718
vt 0.353108 0.964304
vt 0.319535 0.951188
vt 0.287097 0.935471
vt 0.255992 0.917268
vt 0.226407 0.896716
vt 0.198513 0.873963
vt 0.172465 0.849176
vt 0.148401 0.822531
vt 0.126443 0.794212
vt 0.106693 0.764414
vt 0.089235 0.733335
vt 0.074135 0.701176
vt 0.061442 0.668140
vt 0.051186 0.634429
vt 0.043380 0.600244
vt 0.038024 0.565779
vt 0.035101 0.531225
vt 0.011236 1.000000
vt 0.011236 0.500000
vt 0.000000 1.000000
vt 0.000000 0.500000
vt 0.031385 0.502249
vt 0.032787 0.535248
vt 0.036514 0.568066
vt 0.042546 0.600540
vt 0.050854 0.632507
vt 0.061395 0.663809
vt 0.074119 0.694288
vt 0.088961 0.723795
vt 0.105847 0.752181
vt 0.124694 0.779305
vt 0.145407 0.805032
vt 0.167883 0.829235
vt 0.192010 0.851791
vt 0.217668 0.872589
vt 0.244730 0.891526
vt 0.273060 0.908506
vt 0.302517 0.923446
vt 0.332954 0.936271
vt 0.364221 0.946916
vt 0.396160 0.955330
vt 0.428613 0.961470
vt 0.461419 0.965305
vt 0.494414 0.966817
vt 0.527432 0.965997
vt 0.560311 0.962851
vt 0.592886 0.957393
vt 0.624995 0.949651
vt 0.656478 0.939663
vt 0.687177 0.927479
vt 0.716941 0.913160
vt 0.745621 0.896778
vt 0.773073 0.878413
vt 0.799162 0.858157
vt 0.823757 0.836111
vt 0.846736 0.812386
vt 0.867984 0.787099
vt 0.887395 0.760376
vt 0.904873 0.732350
vt 0.920330 0.703161
vt 0.933690 0.672955
vt 0.944886 0.641881
vt 0.953862 0.610095
vt 0.960573 0.577755
vt 0.964987 0.545023
vt 0.967081 0.512060
vt 0.966844 0.479032
vt 0.964278 0.446102
vt 0.959396 0.413436
vt 0.952222 0.381196
vt 0.942791 0.349542
vt 0.931151 0.318632
vt 0.917360 0.288620
vt 0.901486 0.259656
vt 0.883608 0.231883
vt 0.863816 0.205441
vt 0.842208 0.180461
vt 0.818892 0.157067
vt 0.793984 0.135376
vt 0.767607 0.115496
vt 0.739894 0.097527
vt 0.710983 0.081557
vt 0.681017 0.067666
vt 0.650146 0.055923
vt 0.618523 0.046388
vt 0.586307 0.039106
vt 0.553657 0.034116
vt 0.520736 0.031440
vt 0.487709 0.031094
vt 0.454740 0.033078
vt 0.421993 0.037383
vt 0.389631 0.043988
vt 0.357815 0.052858
vt 0.326704 0.063951
vt 0.296454 0.077210
vt 0.267214 0.092570
vt 0.239130 0.109955
vt 0.212343 0.129278
vt 0.186985 0.150441
vt 0.163184 0.173341
vt 0.141057 0.197863
vt 0.120714 0.223884
vt 0.102258 0.251276
vt 0.085781 0.279901
vt 0.071363 0.309617
vt 0.059077 0.340276
vt 0.048985 0.371725
vt 0.041136 0.403808
vt 0.035570 0.436365
vt 0.032314 0.469233
s 0
g off
g Cylinder_Material.001
usemtl Material.001
f 1/1/1 2/2/1 4/3/1 3/4/1
f 3/4/2 4/3/2 6/5/2 5/6/2
f 5/6/3 6/5/3 8/7/3 7/8/3
f 7/8/4 8/7/4 10/9/4 9/10/4
f 9/10/5 10/9/5 12/11/5 11/12/5
f 11/12/6 12/11/6 14/13/6 13/14/6
f 13/14/7 14/13/7 16/15/7 15/16/7
f 15/16/8 16/15/8 18/17/8 17/18/8
f 17/18/9 18/17/9 20/19/9 19/20/9
f 19/20/10 20/19/10 22/21/10 21/22/10
f 21/22/11 22/21/11 24/23/11 23/24/11
f 23/24/12 24/23/12 26/25/12 25/26/12
f 25/26/13 26/25/13 28/27/13 27/28/13
f 27/28/14 28/27/14 30/29/14 29/30/14
f 29/30/15 30/29/15 32/31/15 31/32/15
f 31/32/16 32/31/16 34/33/16 33/34/16
f 33/34/17 34/33/17 36/35/17 35/36/17
f 35/36/18 36/35/18 38/37/18 37/38/18
f 37/38/19 38/37/19 40/39/19 39/40/19
f 39/40/20 40/39/20 42/41/20 41/42/20
f 41/42/21 42/41/21 44/43/21 43/44/21
f 43/44/22 44/43/22 46/45/22 45/46/22
f 45/46/23 46/45/23 48/47/23 47/48/23
f 47/48/24 48/47/24 50/49/24 49/50/24
f 49/50/25 50/49/25 52/51/25 51/52/25
f 51/52/26 52/51/26 54/53/26 53/54/26
f 53/54/27 54/53/27 56/55/27 55/56/27
f 55/56/28 56/55/28 58/57/28 57/58/28
f 57/58/29 58/57/29 60/59/29 59/60/29
f 59/60/30 60/59/30 62/61/30 61/62/30
f 61/62/31 62/61/31 64/63/31 63/64/31
f 63/64/32 64/63/32 66/65/32 65/66/32
f 65/66/33 66/65/33 68/67/33 67/68/33
f 67/68/34 68/67/34 70/69/34 69/70/34
f 69/70/35 70/69/35 72/71/35 71/72/35
f 71/72/36 72/71/36 74/73/36 73/74/36
f 73/74/37 74/73/37 76/75/37 75/76/37
f 75/76/38 76/75/38 78/77/38 77/78/38
f 77/78/39 78/77/39 80/79/39 79/80/39
f 79/80/40 80/79/40 82/81/40 81/82/40
f 81/82/41 82/81/41 84/83/41 83/84/41
f 83/84/42 84/83/42 86/85/42 85/86/42
f 85/86/43 86/85/43 88/87/43 87/88/43
f 87/88/44 88/87/44 90/89/44 89/90/44
f 89/90/45 90/89/45 92/91/45 91/92/45
f 91/92/46 92/91/46 94/93/46 93/94/46
f 93/94/47 94/93/47 96/95/47 95/96/47
f 95/96/48 96/95/48 98/97/48 97/98/48
f 97/98/49 98/97/49 100/99/49 99/100/49
f 99/100/50 100/99/50 102/101/50 101/102/50
f 101/102/51 102/101/51 104/103/51 103/104/51
f 103/104/52 104/103/52 106/105/52 105/106/52
f 105/106/53 106/105/53 108/107/53 107/108/53
f 107/108/54 108/107/54 110/109/54 109/110/54
f 109/110/55 110/109/55 112/111/55 111/112/55
f 111/112/56 112/111/56 114/113/56 113/114/56
f 113/114/57 114/113/57 116/115/57 115/116/57
f 115/116/58 116/115/58 118/117/58 117/118/58
f 117/118/59 118/117/59 120/119/59 119/120/59
f 119/120/60 120/119/60 122/121/60 121/122/60
f 121/122/61 122/121/61 124/123/61 123/124/61
f 123/124/62 124/123/62 126/125/62 125/126/62
f 125/126/63 126/125/63 128/127/63 127/128/63
f 127/128/64 128/127/64 130/129/64 129/130/64
f 129/130/65 130/129/65 132/131/65 131/132/65
f 131/132/66 132/131/66 134/133/66 133/134/66
f 133/134/67 134/133/67 136/135/67 135/136/67
f 135/136/68 136/135/68 138/137/68 137/138/68
f 137/138/69 138/137/69 140/139/69 139/140/69
f 139/140/70 140/139/70 142/141/70 141/142/70
f 141/142/71 142/141/71 144/143/71 143/144/71
f 143/144/72 144/143/72 146/145/72 145/146/72
f 145/146/73 146/145/73 148/147/73 147/148/73
f 147/148/74 148/147/74 150/149/74 149/150/74
f 149/150/75 150/149/75 152/151/75 151/152/75
f 151/152/76 152/151/76 154/153/76 153/154/76
f 153/154/77 154/153/77 156/155/77 155/156/77
f 155/156/78 156/155/78 158/157/78 157/158/78
f 157/158/79 158/157/79 160/159/79 159/160/79
f 159/160/80 160/159/80 162/161/80 161/162/80
f 161/162/81 162/161/81 164/163/81 163/164/81
f 163/164/82 164/163/82 166/165/82 165/166/82
f 165/166/83 166/165/83 168/167/83 167/168/83
f 167/168/84 168/167/84 170/169/84 169/170/84
f 169/170/85 170/169/85 172/171/85 171/172/85
f 171/172/86 172/171/86 174/173/86 173/174/86
f 173/174/87 174/173/87 176/175/87 175/176/87
f 4/177/88 2/178/88 178/179/88 176/180/88 174/181/88 172/182/88 170/183/88 168/184/88 166/185/88 164/186/88 162/187/88 160/188/88 158/189/88 156/190/88 154/191/88 152/192/88 150/193/88 148/194/88 146/195/88 144/196/88 142/197/88 140/198/88 138/199/88 136/200/88 134/201/88 132/202/88 130/203/88 128/204/88 126/205/88 124/206/88 122/207/88 120/208/88 118/209/88 116/210/88 114/211/88 112/212/88 110/213/88 108/214/88 106/215/88 104/216/88 102/217/88 100/218/88 98/219/88 96/220/88 94/221/88 92/222/88 90/223/88 88/224/88 86/225/88 84/226/88 82/227/88 80/228/88 78/229/88 76/230/88 74/231/88 72/232/88 70/233/88 68/234/88 66/235/88 64/236/88 62/237/88 60/238/88 58/239/88 56/240/88 54/241/88 52/242/88 50/243/88 48/244/88 46/245/88 44/246/88 42/247/88 40/248/88 38/249/88 36/250/88 34/251/88 32/252/88 30/253/88 28/254/88 26/255/88 24/256/88 22/257/88 20/258/88 18/259/88 16/260/88 14/261/88 12/262/88 10/263/88 8/264/88 6/265/88
f 175/176/89 176/175/89 178/266/89 177/267/89
f 177/267/90 178/266/90 2/268/90 1/269/90
f 1/270/91 3/271/91 5/272/91 7/273/91 9/274/91 11/275/91 13/276/91 15/277/91 17/278/91 19/279/91 21/280/91 23/281/91 25/282/91 27/283/91 29/284/91 31/285/91 33/286/91 35/287/91 37/288/91 39/289/91 41/290/91 43/291/91 45/292/91 47/293/91 49/294/91 51/295/91 53/296/91 55/297/91 57/298/91 59/299/91 61/300/91 63/301/91 65/302/91 67/303/91 69/304/91 71/305/91 73/306/91 75/307/91 77/308/91 79/309/91 81/310/91 83/311/91 85/312/91 87/313/91 89/314/91 91/315/91 93/316/91 95/317/91 97/318/91 99/319/91 101/320/91 103/321/91 105/322/91 107/323/91 109/324/91 111/325/91 113/326/91 115/327/91 117/328/91 119/329/91 121/330/91 123/331/91 125/332/91 127/333/91 129/334/91 131/335/91 133/336/91 135/337/91 137/338/91 139/339/91 141/340/91 143/341/91 145/342/91 147/343/91 149/344/91 151/345/91 153/346/91 155/347/91 157/348/91 159/349/91 161/350/91 163/351/91 165/352/91 167/353/91 169/354/91 171/355/91 173/356/91 175/357/91 177/358/91
