# Blender 4.5.2 LTS
# www.blender.org
mtllib cartel.mtl
g cartel_Mesh
v -3.687907 8.381470 1.067792
v -3.687907 10.381470 1.067792
v -3.687907 8.381470 0.388543
v -3.687907 10.381470 0.388543
v 2.888105 8.381470 1.067792
v 2.888105 10.381470 1.067792
v 2.888105 8.381470 0.388543
v 2.888105 10.381470 0.388543
vn -1.0000 -0.0000 -0.0000
vn -0.0000 -0.0000 -1.0000
vn 1.0000 -0.0000 -0.0000
vn -0.0000 -0.0000 1.0000
vn -0.0000 -1.0000 -0.0000
vn -0.0000 1.0000 -0.0000
vt 0.625000 0.000000
vt 0.375000 0.250000
vt 0.375000 0.000000
vt 0.625000 0.250000
vt 0.375000 0.500000
vt 0.625000 0.500000
vt 0.375000 0.750000
vt 0.625000 0.750000
vt 0.375000 1.000000
vt 0.125000 0.750000
vt 0.125000 0.500000
vt 0.875000 0.500000
vt 0.625000 1.000000
vt 0.875000 0.750000
s 1
g off
g cartel_Material.012
usemtl Material.012
f 2/1/1 3/2/1 1/3/1
s 2
f 4/4/2 7/5/2 3/2/2
s 3
f 8/6/3 5/7/3 7/5/3
s 4
f 6/8/4 1/9/4 5/7/4
s 5
f 7/5/5 1/10/5 3/11/5
s 6
f 4/12/6 6/8/6 8/6/6
s 1
f 2/1/1 4/4/1 3/2/1
s 2
f 4/4/2 8/6/2 7/5/2
s 3
f 8/6/3 6/8/3 5/7/3
s 4
f 6/8/4 2/13/4 1/9/4
s 5
f 7/5/5 5/7/5 1/10/5
s 6
f 4/12/6 2/14/6 6/8/6
