# Blender 4.5.4 LTS
# www.blender.org
mtllib FinnBD.mtl
g FinnBD_FinnFinal.005
v -4.545635 6.077442 0.375929
v -4.545635 6.173027 0.403953
v -4.545635 6.205439 0.457579
v -4.545635 6.198365 0.611865
v -4.545635 6.083181 0.671209
v -4.545635 5.959675 0.639127
v -4.545635 5.895522 0.539332
v -4.545635 5.939146 0.422558
v -4.630586 6.077442 0.375929
v -4.630586 6.173027 0.403953
v -4.630586 6.205439 0.457579
v -4.630586 6.198365 0.611865
v -4.630586 6.083181 0.671209
v -4.630586 5.959675 0.639127
v -4.630586 5.895522 0.539332
v -4.630586 5.939146 0.422558
v -4.705328 6.073427 0.395199
v -4.705328 6.157861 0.416830
v -4.705328 6.186289 0.465366
v -4.705328 6.180680 0.602470
v -4.705328 6.080204 0.648211
v -4.705328 5.969070 0.621440
v -4.705328 5.914673 0.536354
v -4.705328 5.955870 0.438686
v -4.760043 6.059768 0.446003
v -4.760043 6.107185 0.462266
v -4.760043 6.133971 0.491002
v -4.760043 6.132358 0.576802
v -4.760043 6.073804 0.609360
v -4.760043 6.001471 0.585624
v -4.760043 5.966990 0.532840
v -4.760043 5.997458 0.476858
v -4.775664 6.064081 0.512251
v -4.389250 5.935147 0.423611
v -4.389218 5.895554 0.535412
v -4.389218 5.956932 0.639425
v -4.389218 6.200163 0.616228
v -4.389122 6.202989 0.465181
v -1.969554 6.172029 0.400040
v -1.966660 6.076786 0.373395
v -1.975598 5.940154 0.420701
v -1.971943 5.895950 0.535998
v -1.964752 5.962045 0.640758
v -1.948362 6.083410 0.672883
v -1.950633 6.194949 0.618798
v -1.969883 6.237681 0.504987
v -1.343246 6.241305 0.514066
v -1.267637 6.195208 0.657115
v -1.247075 6.078668 0.715742
v -1.274424 5.954183 0.686707
v -1.312262 5.891099 0.538540
v -1.373291 5.944558 0.380366
v -1.377826 6.071799 0.341044
v -1.381110 6.155100 0.370601
v -3.738107 6.084296 0.673128
v -3.738204 5.959296 0.640041
v -3.737958 5.895737 0.535683
v -3.737608 5.937161 0.422204
v -3.738132 6.076814 0.373381
v -3.738121 6.174224 0.400638
v -3.737973 6.219647 0.475380
v -3.738222 6.197753 0.617417
v -4.389132 6.081198 0.670878
v -4.389348 6.075360 0.374902
v -4.389197 6.172770 0.402159
vn -0.0043 -0.0812 -0.9967
vn -0.1124 -0.0797 -0.9905
vn -0.1171 0.5369 -0.8355
vn 0.0028 0.5522 -0.8337
vn -0.1145 0.9858 -0.1229
vn 0.0038 0.9919 -0.1269
vn -0.1239 0.8622 0.4911
vn -0.0031 0.8674 0.4976
vn -0.1220 0.1083 0.9866
vn -0.0052 0.1091 0.9940
vn -0.1195 -0.5646 0.8167
vn -0.0018 -0.5780 0.8160
vn -0.1176 -0.9889 0.0910
vn -0.0059 -0.9949 0.1008
vn -0.1189 -0.6637 -0.7385
vn -0.0073 -0.6645 -0.7472
vn -0.4277 -0.0828 -0.9001
vn -0.4640 0.4725 -0.7493
vn -0.4483 0.8852 -0.1241
vn -0.4369 0.7833 0.4422
vn -0.4034 0.0891 0.9107
vn -0.4091 -0.5273 0.7447
vn -0.4339 -0.8986 0.0651
vn -0.4269 -0.6053 -0.6718
vn -0.7551 -0.1003 -0.6479
vn -0.8028 0.2954 -0.5179
vn -0.7858 0.6113 -0.0939
vn -0.7825 0.5407 0.3089
vn -0.7528 0.0479 0.6565
vn -0.7723 -0.3573 0.5253
vn -0.7913 -0.6104 0.0357
vn -0.7689 -0.4283 -0.4747
vn -0.9999 0.0089 -0.0054
vn -0.0023 -0.6683 -0.7439
vn 0.0002 -0.6675 -0.7446
vn 0.0009 -0.9949 0.1011
vn -0.0006 -0.9951 0.0986
vn 0.0002 -0.5885 0.8085
vn -0.0004 -0.5890 0.8081
vn -0.0005 0.0953 0.9954
vn -0.0048 0.8001 0.5998
vn -0.0080 0.8474 0.5310
vn -0.0031 0.0952 0.9955
vn -0.0055 0.9938 -0.1106
vn -0.0079 0.9927 -0.1204
vn -0.0141 -0.0827 -0.9965
vn -0.1275 0.1276 -0.9836
vn -0.1240 -0.7213 -0.6814
vn -0.0090 -0.6819 -0.7314
vn -0.0682 -0.9881 0.1377
vn -0.0053 -0.9951 0.0986
vn -0.1012 -0.5593 0.8228
vn -0.0129 -0.5948 0.8038
vn -0.1119 0.1142 0.9871
vn -0.0186 0.1062 0.9942
vn -0.1118 0.6814 0.7233
vn -0.0125 0.7660 0.6428
vn -0.0475 0.9986 -0.0233
vn -0.0047 0.9954 -0.0962
vn -0.0991 0.5934 -0.7988
vn -0.0046 0.6316 -0.7753
vn -0.0006 -0.0894 -0.9960
vn -0.0012 0.6024 -0.7982
vn -0.0029 -0.0901 -0.9959
vn -0.0044 0.5751 -0.8181
vt 0.363367 0.821100
vt 0.361456 0.822578
vt 0.359544 0.820096
vt 0.360968 0.818465
vt 0.358413 0.819148
vt 0.359613 0.817393
vt 0.355090 0.817531
vt 0.355849 0.815460
vt 0.351922 0.817260
vt 0.352256 0.814791
vt 0.348674 0.817726
vt 0.348562 0.814775
vt 0.345444 0.818748
vt 0.344878 0.815045
vt 0.366822 0.827367
vt 0.363572 0.828940
vt 0.362722 0.825560
vt 0.365245 0.824175
vt 0.359488 0.823740
vt 0.358202 0.821589
vt 0.357251 0.820813
vt 0.354504 0.819500
vt 0.352015 0.819617
vt 0.349367 0.820347
vt 0.347031 0.821709
vt 0.360220 0.829227
vt 0.360116 0.826215
vt 0.357382 0.824576
vt 0.356500 0.823234
vt 0.355867 0.822520
vt 0.354085 0.821509
vt 0.352580 0.821587
vt 0.350896 0.822474
vt 0.349633 0.823828
vt 0.357004 0.828000
vt 0.357334 0.826052
vt 0.353969 0.824643
vt 0.369179 0.820570
vt 0.380206 0.802551
vt 0.383434 0.804595
vt 0.371772 0.823202
vt 0.346080 0.808545
vt 0.356236 0.789016
vt 0.359657 0.790814
vt 0.349651 0.809511
vt 0.363303 0.792725
vt 0.366855 0.794626
vt 0.357385 0.811715
vt 0.353491 0.810418
vt 0.370882 0.796853
vt 0.361594 0.813871
vt 0.415779 0.716229
vt 0.417022 0.708557
vt 0.420625 0.709173
vt 0.419602 0.717271
vt 0.426306 0.709353
vt 0.423687 0.715709
vt 0.392109 0.713009
vt 0.390956 0.705911
vt 0.395800 0.704086
vt 0.395917 0.714940
vt 0.399756 0.703148
vt 0.399955 0.714597
vt 0.403779 0.704102
vt 0.403910 0.714926
vt 0.408197 0.707094
vt 0.407775 0.715557
vt 0.413379 0.708469
vt 0.411647 0.716857
vt 0.392891 0.732801
vt 0.396696 0.734193
vt 0.390253 0.729442
vt 0.413379 0.744909
vt 0.417742 0.745218
vt 0.376834 0.800441
vt 0.410353 0.742351
vt 0.373290 0.798285
vt 0.406342 0.741176
vt 0.403381 0.738364
vt 0.400143 0.736161
vt 0.366410 0.817778
vt 0.363406 0.815108
s 1
g off
g FinnBD_finn_color
usemtl finn_color
f 1/1/1 9/2/2 10/3/3 2/4/4
f 2/4/4 10/3/3 11/5/5 3/6/6
f 3/6/6 11/5/5 12/7/7 4/8/8
f 4/8/8 12/7/7 13/9/9 5/10/10
f 5/10/10 13/9/9 14/11/11 6/12/12
f 6/12/12 14/11/11 15/13/13 7/14/14
f 7/15/14 15/16/13 16/17/15 8/18/16
f 8/18/16 16/17/15 9/2/2 1/1/1
f 9/2/2 17/19/17 18/20/18 10/3/3
f 10/3/3 18/20/18 19/21/19 11/5/5
f 11/5/5 19/21/19 20/22/20 12/7/7
f 12/7/7 20/22/20 21/23/21 13/9/9
f 13/9/9 21/23/21 22/24/22 14/11/11
f 14/11/11 22/24/22 23/25/23 15/13/13
f 15/16/13 23/26/23 24/27/24 16/17/15
f 16/17/15 24/27/24 17/19/17 9/2/2
f 17/19/17 25/28/25 26/29/26 18/20/18
f 18/20/18 26/29/26 27/30/27 19/21/19
f 19/21/19 27/30/27 28/31/28 20/22/20
f 20/22/20 28/31/28 29/32/29 21/23/21
f 21/23/21 29/32/29 30/33/30 22/24/22
f 22/24/22 30/33/30 31/34/31 23/25/23
f 23/26/23 31/35/31 32/36/32 24/27/24
f 24/27/24 32/36/32 25/28/25 17/19/17
f 25/28/25 33/37/33 26/29/26
f 26/29/26 33/37/33 27/30/27
f 27/30/27 33/37/33 28/31/28
f 28/31/28 33/37/33 29/32/29
f 29/32/29 33/37/33 30/33/30
f 30/33/30 33/37/33 31/34/31
f 31/35/31 33/37/33 32/36/32
f 32/36/32 33/37/33 25/28/25
f 34/38/34 58/39/35 57/40/36 35/41/37
f 35/42/37 57/43/36 56/44/38 36/45/39
f 55/46/40 62/47/41 37/48/42 63/49/43
f 37/48/42 62/47/41 61/50/44 38/51/45
f 40/52/46 53/53/47 52/54/48 41/55/49
f 41/55/49 52/54/48 51/56/50 42/57/51
f 42/58/51 51/59/50 50/60/52 43/61/53
f 43/61/53 50/60/52 49/62/54 44/63/55
f 44/63/55 49/62/54 48/64/56 45/65/57
f 45/65/57 48/64/56 47/66/58 46/67/59
f 46/67/59 47/66/58 54/68/60 39/69/61
f 39/69/61 54/68/60 53/53/47 40/52/46
f 56/44/38 43/70/53 44/71/55 55/46/40
f 57/43/36 42/72/51 43/70/53 56/44/38
f 58/39/35 41/73/49 42/74/51 57/40/36
f 59/75/62 40/76/46 41/73/49 58/39/35
f 60/77/63 39/78/61 40/76/46 59/75/62
f 61/50/44 46/79/59 39/78/61 60/77/63
f 62/47/41 45/80/57 46/79/59 61/50/44
f 55/46/40 44/71/55 45/80/57 62/47/41
f 36/45/39 56/44/38 55/46/40 63/49/43
f 58/39/35 34/38/34 64/81/64 59/75/62
f 60/77/63 65/82/65 38/51/45 61/50/44
f 59/75/62 64/81/64 65/82/65 60/77/63
f 2/4/4 65/82/65 64/81/64 1/1/1
f 1/1/1 64/81/64 34/38/34 8/18/16
f 8/18/16 34/38/34 35/41/37 7/15/14
f 7/14/14 35/42/37 36/45/39 6/12/12
f 6/12/12 36/45/39 63/49/43 5/10/10
f 5/10/10 63/49/43 37/48/42 4/8/8
f 4/8/8 37/48/42 38/51/45 3/6/6
f 3/6/6 38/51/45 65/82/65 2/4/4
