# Blender 4.5.4 LTS
# www.blender.org
mtllib FinnBI.mtl
g FinnBI_FinnFinal.004
v 4.545635 6.077442 0.375929
v 4.545635 6.173027 0.403953
v 4.545635 6.205439 0.457579
v 4.545635 6.198365 0.611865
v 4.545635 6.083181 0.671209
v 4.545635 5.959675 0.639127
v 4.545635 5.895522 0.539332
v 4.545635 5.939146 0.422558
v 4.630586 6.077442 0.375929
v 4.630586 6.173027 0.403953
v 4.630586 6.205439 0.457579
v 4.630586 6.198365 0.611865
v 4.630586 6.083181 0.671209
v 4.630586 5.959675 0.639127
v 4.630586 5.895522 0.539332
v 4.630586 5.939146 0.422558
v 4.705328 6.073427 0.395199
v 4.705328 6.157861 0.416830
v 4.705328 6.186289 0.465366
v 4.705328 6.180680 0.602470
v 4.705328 6.080204 0.648211
v 4.705328 5.969070 0.621440
v 4.705328 5.914673 0.536354
v 4.705328 5.955870 0.438686
v 4.760043 6.059768 0.446003
v 4.760043 6.107185 0.462266
v 4.760043 6.133971 0.491002
v 4.760043 6.132358 0.576802
v 4.760043 6.073804 0.609360
v 4.760043 6.001471 0.585624
v 4.760043 5.966990 0.532840
v 4.760043 5.997458 0.476858
v 4.775664 6.064081 0.512251
v 4.389250 5.935147 0.423611
v 4.389218 5.895554 0.535412
v 4.389218 5.956932 0.639425
v 4.389218 6.200163 0.616228
v 4.389122 6.202989 0.465181
v 1.969554 6.172029 0.400040
v 1.966660 6.076786 0.373395
v 1.975598 5.940154 0.420701
v 1.971943 5.895950 0.535998
v 1.964752 5.962045 0.640758
v 1.948362 6.083410 0.672883
v 1.950633 6.194949 0.618798
v 1.969883 6.237681 0.504987
v 1.229687 5.940329 0.307047
v 1.151989 5.887997 0.540565
v 1.232287 6.065199 0.269395
v 1.010032 5.941959 0.753506
v 0.969809 6.070859 0.798711
v 1.016866 6.198413 0.731582
v 1.165251 6.234258 0.530567
v 1.219900 6.140490 0.315873
v 1.343246 6.241305 0.514066
v 1.267637 6.195208 0.657115
v 1.247075 6.078668 0.715742
v 1.274424 5.954183 0.686707
v 1.312262 5.891099 0.538540
v 1.373291 5.944558 0.380366
v 1.377826 6.071799 0.341044
v 1.381110 6.155100 0.370601
v 3.738107 6.084296 0.673128
v 3.738204 5.959296 0.640041
v 3.737958 5.895737 0.535683
v 3.737608 5.937161 0.422204
v 3.738132 6.076814 0.373381
v 3.738121 6.174224 0.400638
v 3.737973 6.219647 0.475380
v 3.738222 6.197753 0.617417
v 4.389132 6.081198 0.670878
v 4.389348 6.075360 0.374902
v 4.389197 6.172770 0.402159
vn 0.0043 -0.0812 -0.9967
vn -0.0018 0.5522 -0.8337
vn 0.1171 0.5369 -0.8355
vn 0.1124 -0.0797 -0.9905
vn -0.0038 0.9919 -0.1269
vn 0.1145 0.9858 -0.1229
vn 0.0035 0.8674 0.4976
vn 0.1239 0.8622 0.4911
vn 0.0052 0.1092 0.9940
vn 0.1220 0.1083 0.9866
vn 0.0018 -0.5780 0.8160
vn 0.1195 -0.5646 0.8167
vn 0.0059 -0.9949 0.1008
vn 0.1176 -0.9889 0.0910
vn 0.0073 -0.6645 -0.7472
vn 0.1189 -0.6637 -0.7385
vn 0.4640 0.4725 -0.7493
vn 0.4277 -0.0828 -0.9001
vn 0.4483 0.8852 -0.1240
vn 0.4369 0.7833 0.4422
vn 0.4034 0.0891 0.9107
vn 0.4091 -0.5273 0.7447
vn 0.4339 -0.8986 0.0651
vn 0.4269 -0.6053 -0.6718
vn 0.8028 0.2954 -0.5179
vn 0.7551 -0.1003 -0.6479
vn 0.7858 0.6113 -0.0939
vn 0.7825 0.5407 0.3089
vn 0.7528 0.0479 0.6565
vn 0.7722 -0.3573 0.5254
vn 0.7913 -0.6104 0.0356
vn 0.7689 -0.4283 -0.4747
vn 0.9999 0.0089 -0.0054
vn 0.0023 -0.6683 -0.7439
vn 0.0006 -0.9951 0.0986
vn -0.0009 -0.9949 0.1011
vn -0.0002 -0.6675 -0.7446
vn 0.0004 -0.5890 0.8081
vn -0.0002 -0.5885 0.8085
vn 0.0005 0.0954 0.9954
vn 0.0031 0.0952 0.9955
vn 0.0080 0.8474 0.5310
vn 0.0048 0.8001 0.5998
vn 0.0079 0.9927 -0.1204
vn 0.0056 0.9938 -0.1106
vn 0.0141 -0.0827 -0.9965
vn 0.0090 -0.6819 -0.7314
vn 0.0800 -0.7652 -0.6388
vn 0.1347 -0.0571 -0.9892
vn 0.0053 -0.9951 0.0986
vn 0.0405 -0.9922 0.1182
vn 0.0129 -0.5948 0.8038
vn 0.0917 -0.6224 0.7773
vn 0.0186 0.1062 0.9942
vn 0.1399 0.1083 0.9842
vn 0.0125 0.7660 0.6428
vn 0.0743 0.7279 0.6816
vn 0.0047 0.9954 -0.0962
vn 0.0103 0.9980 -0.0621
vn 0.0046 0.6316 -0.7753
vn 0.0323 0.7217 -0.6915
vn 0.2108 0.9662 0.1482
vn 0.2687 0.5129 0.8153
vn 0.3195 0.0779 0.9444
vn 0.2848 -0.4048 0.8689
vn 0.1704 -0.9654 0.1975
vn 0.3641 -0.8081 -0.4630
vn 0.5902 -0.2150 -0.7781
vn 0.5444 0.6485 -0.5321
vn 0.0009 -0.0894 -0.9960
vn 0.0012 0.6024 -0.7982
vn 0.0029 -0.0901 -0.9959
vn 0.0044 0.5751 -0.8181
vt 0.308798 0.809551
vt 0.312418 0.810225
vt 0.311760 0.812362
vt 0.308539 0.812033
vt 0.314096 0.810832
vt 0.313207 0.812841
vt 0.317841 0.813086
vt 0.316435 0.814879
vt 0.320382 0.815878
vt 0.318396 0.817515
vt 0.322406 0.819115
vt 0.319753 0.820621
vt 0.324171 0.822498
vt 0.320611 0.824014
vt 0.301415 0.809926
vt 0.305076 0.809574
vt 0.305232 0.812543
vt 0.301802 0.813636
vt 0.311178 0.814353
vt 0.308590 0.814393
vt 0.312377 0.814766
vt 0.315024 0.816465
vt 0.316275 0.818714
vt 0.317073 0.821437
vt 0.317147 0.824230
vt 0.306075 0.815188
vt 0.303373 0.816736
vt 0.310660 0.816742
vt 0.309001 0.816698
vt 0.311630 0.816910
vt 0.313487 0.817926
vt 0.314238 0.819290
vt 0.314374 0.821252
vt 0.313871 0.823097
vt 0.307731 0.817543
vt 0.306200 0.818893
vt 0.310798 0.819732
vt 0.306103 0.804158
vt 0.302380 0.803313
vt 0.312381 0.782949
vt 0.315933 0.784673
vt 0.329227 0.817907
vt 0.326437 0.815295
vt 0.337417 0.796339
vt 0.340856 0.798365
vt 0.333755 0.794176
vt 0.323552 0.812415
vt 0.320295 0.809700
vt 0.330155 0.792089
vt 0.316112 0.807177
vt 0.326008 0.789764
vt 0.349050 0.698698
vt 0.345091 0.697659
vt 0.348350 0.689882
vt 0.351894 0.691189
vt 0.342239 0.694155
vt 0.343172 0.687114
vt 0.371900 0.708021
vt 0.367495 0.707786
vt 0.373197 0.698130
vt 0.376592 0.702262
vt 0.364058 0.705397
vt 0.370140 0.695251
vt 0.360347 0.703652
vt 0.366046 0.694030
vt 0.356562 0.702223
vt 0.360548 0.694430
vt 0.352426 0.701391
vt 0.355201 0.692988
vt 0.363372 0.689416
vt 0.370574 0.686765
vt 0.375280 0.687206
vt 0.378006 0.690694
vt 0.379859 0.698559
vt 0.343400 0.681942
vt 0.350610 0.685223
vt 0.353753 0.686124
vt 0.356576 0.687660
vt 0.367006 0.733012
vt 0.370299 0.735597
vt 0.374683 0.736087
vt 0.345877 0.720522
vt 0.348521 0.724187
vt 0.319620 0.786486
vt 0.352413 0.725453
vt 0.323441 0.788427
vt 0.355627 0.728338
vt 0.359707 0.729409
vt 0.363403 0.731055
vt 0.310061 0.805071
vt 0.314040 0.806257
s 1
g off
g FinnBI_finn_color
usemtl finn_color
f 1/1/1 2/2/2 10/3/3 9/4/4
f 2/2/2 3/5/5 11/6/6 10/3/3
f 3/5/5 4/7/7 12/8/8 11/6/6
f 4/7/7 5/9/9 13/10/10 12/8/8
f 5/9/9 6/11/11 14/12/12 13/10/10
f 6/11/11 7/13/13 15/14/14 14/12/12
f 7/15/13 8/16/15 16/17/16 15/18/14
f 8/16/15 1/1/1 9/4/4 16/17/16
f 9/4/4 10/3/3 18/19/17 17/20/18
f 10/3/3 11/6/6 19/21/19 18/19/17
f 11/6/6 12/8/8 20/22/20 19/21/19
f 12/8/8 13/10/10 21/23/21 20/22/20
f 13/10/10 14/12/12 22/24/22 21/23/21
f 14/12/12 15/14/14 23/25/23 22/24/22
f 15/18/14 16/17/16 24/26/24 23/27/23
f 16/17/16 9/4/4 17/20/18 24/26/24
f 17/20/18 18/19/17 26/28/25 25/29/26
f 18/19/17 19/21/19 27/30/27 26/28/25
f 19/21/19 20/22/20 28/31/28 27/30/27
f 20/22/20 21/23/21 29/32/29 28/31/28
f 21/23/21 22/24/22 30/33/30 29/32/29
f 22/24/22 23/25/23 31/34/31 30/33/30
f 23/27/23 24/26/24 32/35/32 31/36/31
f 24/26/24 17/20/18 25/29/26 32/35/32
f 25/29/26 26/28/25 33/37/33
f 26/28/25 27/30/27 33/37/33
f 27/30/27 28/31/28 33/37/33
f 28/31/28 29/32/29 33/37/33
f 29/32/29 30/33/30 33/37/33
f 30/33/30 31/34/31 33/37/33
f 31/36/31 32/35/32 33/37/33
f 32/35/32 25/29/26 33/37/33
f 34/38/34 35/39/35 65/40/36 66/41/37
f 35/42/35 36/43/38 64/44/39 65/45/36
f 63/46/40 71/47/41 37/48/42 70/49/43
f 37/48/42 38/50/44 69/51/45 70/49/43
f 40/52/46 41/53/47 60/54/48 61/55/49
f 41/53/47 42/56/50 59/57/51 60/54/48
f 42/58/50 43/59/52 58/60/53 59/61/51
f 43/59/52 44/62/54 57/63/55 58/60/53
f 44/62/54 45/64/56 56/65/57 57/63/55
f 45/64/56 46/66/58 55/67/59 56/65/57
f 46/66/58 39/68/60 62/69/61 55/67/59
f 39/68/60 40/52/46 61/55/49 62/69/61
f 56/65/57 55/67/59 53/70/62 52/71/63
f 57/63/55 56/65/57 52/71/63 51/72/64
f 58/60/53 57/63/55 51/72/64 50/73/65
f 59/61/51 58/60/53 50/73/65 48/74/66
f 60/54/48 59/57/51 48/75/66 47/76/67
f 61/55/49 60/54/48 47/76/67 49/77/68
f 62/69/61 61/55/49 49/77/68 54/78/69
f 55/67/59 62/69/61 54/78/69 53/70/62
f 64/44/39 63/46/40 44/79/54 43/80/52
f 65/45/36 64/44/39 43/80/52 42/81/50
f 66/41/37 65/40/36 42/82/50 41/83/47
f 67/84/70 66/41/37 41/83/47 40/85/46
f 68/86/71 67/84/70 40/85/46 39/87/60
f 69/51/45 68/86/71 39/87/60 46/88/58
f 70/49/43 69/51/45 46/88/58 45/89/56
f 63/46/40 70/49/43 45/89/56 44/79/54
f 36/43/38 71/47/41 63/46/40 64/44/39
f 66/41/37 67/84/70 72/90/72 34/38/34
f 68/86/71 69/51/45 38/50/44 73/91/73
f 67/84/70 68/86/71 73/91/73 72/90/72
f 2/2/2 1/1/1 72/90/72 73/91/73
f 1/1/1 8/16/15 34/38/34 72/90/72
f 8/16/15 7/15/13 35/39/35 34/38/34
f 7/13/13 6/11/11 36/43/38 35/42/35
f 6/11/11 5/9/9 71/47/41 36/43/38
f 5/9/9 4/7/7 37/48/42 71/47/41
f 4/7/7 3/5/5 38/50/44 37/48/42
f 3/5/5 2/2/2 73/91/73 38/50/44
